<mxfile host="app.diagrams.net" modified="2023-06-23T10:56:18.860Z" agent="Mozilla/5.0 (Windows NT 10.0; Win64; x64) AppleWebKit/537.36 (KHTML, like Gecko) Chrome/114.0.0.0 Safari/537.36" version="21.5.0" etag="kDLdj-tSKtDFpOLok8e0" type="github">
  <diagram name="第 1 页" id="14C9dS5evCSv4lL8MQ12">
    <mxGraphModel>
      <root>
        <mxCell id="0" />
        <mxCell id="1" parent="0" />
      </root>
    </mxGraphModel>
  </diagram>
</mxfile>
